<?xml version="1.0" encoding="utf-8"?>
<!-- Generator: Adobe Illustrator 18.1.1, SVG Export Plug-In . SVG Version: 6.00 Build 0)  -->
<svg version="1.1" id="Layer_1" xmlns="http://www.w3.org/2000/svg" xmlns:xlink="http://www.w3.org/1999/xlink" x="0px" y="0px"
	 viewBox="0 0 128 128" enable-background="new 0 0 128 128" xml:space="preserve">
<g>
	<rect x="64.2" y="2.4" fill="#465053" width="50.3" height="27.3"/>
	<rect x="95.4" y="21.8" fill="#465053" width="19.1" height="30.9"/>
	<circle fill="#465053" cx="64.2" cy="52.7" r="50.3"/>
	<circle fill="#B0BFC5" cx="64.2" cy="75.3" r="50.3"/>
	<circle fill="#B0BFC5" cx="10.5" cy="76.2" r="9.9"/>
	<polygon fill="#253135" points="26.4,37.2 14.6,52.8 14.6,66.3 26.4,66.3 	"/>
	<polygon fill="#465053" points="101.9,37.2 113.7,52.8 113.7,66.3 101.9,66.3 	"/>
	<polygon fill="#465053" points="105,58.4 23.4,58.4 23.4,34.5 64.2,18.6 105,34.5 	"/>
	<circle fill="#253135" cx="77.3" cy="37.9" r="24.8"/>
	<circle fill="#253135" cx="52.3" cy="31.3" r="13.6"/>
	<circle fill="#465053" cx="44.1" cy="37.2" r="13.6"/>
	<rect x="97.1" y="37.2" fill="#253135" width="4.8" height="14.5"/>
	<ellipse fill="#96A9B1" cx="64.2" cy="48.6" rx="37.8" ry="23.7"/>
	<rect x="26.4" y="48.6" fill="#96A9B1" width="75.5" height="9"/>
	<ellipse fill="#B0BFC5" cx="64.2" cy="57.6" rx="37.8" ry="23.7"/>
	<polygon fill="#E6EEF0" points="55.6,77.6 64.2,58 72.8,77.6 	"/>
	<circle fill="#253135" cx="43.2" cy="65.4" r="7.8"/>
	<rect x="10.4" y="66.3" fill="#B0BFC5" width="16" height="10.3"/>
	<circle fill="#B0BFC5" cx="117.8" cy="76.2" r="9.9"/>
	<rect x="108.9" y="52.7" fill="#465053" width="5.6" height="13.6"/>
	<rect x="101.9" y="66.3" fill="#B0BFC5" width="16" height="10.3"/>
	<rect x="30.2" y="66.3" fill="#B0BFC5" width="21.6" height="10.8"/>
	<circle fill="#96A9B1" cx="64.2" cy="116.3" r="7.8"/>
	<polygon fill="#B0BFC5" points="75,121.8 64.2,125 53.4,121.8 53.4,116.3 75,116.3 	"/>
	<circle fill="#253135" cx="85.1" cy="65.4" r="7.8"/>
	<rect x="76.5" y="66.3" fill="#B0BFC5" width="21.6" height="10.8"/>
	<path fill="#96A9B1" d="M64.2,86.2c4.8,0,8.6-3.9,8.6-8.6H55.6C55.6,82.4,59.4,86.2,64.2,86.2z"/>
	<g>
		<path fill="#FFFFFF" d="M39.1,91.9c4.1,9.8,13.8,16.6,25.1,16.6s20.9-6.8,25.1-16.6H39.1z"/>
	</g>

		<line fill="none" stroke="#E6EEF0" stroke-width="3" stroke-linecap="round" stroke-miterlimit="10" x1="38" y1="74" x2="48.5" y2="74"/>

		<line fill="none" stroke="#E6EEF0" stroke-width="3" stroke-linecap="round" stroke-miterlimit="10" x1="90.3" y1="74" x2="79.9" y2="74"/>
	<rect x="13.8" y="21.8" fill="#465053" width="12.6" height="44.5"/>
</g>
</svg>
